<?xml version="1.0" encoding="UTF-8" standalone="no"?>
<!DOCTYPE svg PUBLIC "-//W3C//DTD SVG 1.1//EN"
 "http://www.w3.org/Graphics/SVG/1.1/DTD/svg11.dtd">
<!-- Generated by graphviz version 5.0.0 (20220707.1540)
 -->
<!-- Title: dependencies Pages: 1 -->
<svg width="397pt" height="174pt"
 viewBox="0.00 0.00 397.00 173.80" xmlns="http://www.w3.org/2000/svg" xmlns:xlink="http://www.w3.org/1999/xlink">
<g id="graph0" class="graph" transform="scale(1 1) rotate(0) translate(4 169.8)">
<title>dependencies</title>
<polygon fill="white" stroke="transparent" points="-4,4 -4,-169.8 393,-169.8 393,4 -4,4"/>
<text text-anchor="middle" x="194.5" y="-8.2" font-family="sans-serif" font-size="14.00">dependencies</text>
<g id="clust1" class="cluster">
<title>cluster_AppModule</title>
<polygon fill="none" stroke="black" stroke-dasharray="1,5" points="8,-32.8 8,-157.8 381,-157.8 381,-32.8 8,-32.8"/>
</g>
<g id="clust3" class="cluster">
<title>cluster_AppModule_imports</title>
<polygon fill="none" stroke="black" points="16,-40.8 16,-92.8 373,-92.8 373,-40.8 16,-40.8"/>
</g>
<!-- AnswersModule -->
<g id="node1" class="node">
<title>AnswersModule</title>
<polygon fill="#8dd3c7" stroke="black" points="365.05,-84.8 362.05,-88.8 341.05,-88.8 338.05,-84.8 256.95,-84.8 256.95,-48.8 365.05,-48.8 365.05,-84.8"/>
<text text-anchor="middle" x="311" y="-62.6" font-family="Times,serif" font-size="14.00">AnswersModule</text>
</g>
<!-- AppModule -->
<g id="node4" class="node">
<title>AppModule</title>
<polygon fill="#8dd3c7" stroke="black" points="227.66,-149.8 224.66,-153.8 203.66,-153.8 200.66,-149.8 144.34,-149.8 144.34,-113.8 227.66,-113.8 227.66,-149.8"/>
<text text-anchor="middle" x="186" y="-127.6" font-family="Times,serif" font-size="14.00">AppModule</text>
</g>
<!-- AnswersModule&#45;&gt;AppModule -->
<g id="edge1" class="edge">
<title>AnswersModule&#45;&gt;AppModule</title>
<path fill="none" stroke="black" d="M311,-84.91C311,-104.14 311,-131.8 311,-131.8 311,-131.8 237.97,-131.8 237.97,-131.8"/>
<polygon fill="black" stroke="black" points="237.97,-128.3 227.97,-131.8 237.97,-135.3 237.97,-128.3"/>
</g>
<!-- SurveysModule -->
<g id="node2" class="node">
<title>SurveysModule</title>
<polygon fill="#8dd3c7" stroke="black" points="238.16,-84.8 235.16,-88.8 214.16,-88.8 211.16,-84.8 133.84,-84.8 133.84,-48.8 238.16,-48.8 238.16,-84.8"/>
<text text-anchor="middle" x="186" y="-62.6" font-family="Times,serif" font-size="14.00">SurveysModule</text>
</g>
<!-- SurveysModule&#45;&gt;AppModule -->
<g id="edge2" class="edge">
<title>SurveysModule&#45;&gt;AppModule</title>
<path fill="none" stroke="black" d="M186,-84.91C186,-84.91 186,-103.79 186,-103.79"/>
<polygon fill="black" stroke="black" points="182.5,-103.79 186,-113.79 189.5,-103.79 182.5,-103.79"/>
</g>
<!-- UsersModule -->
<g id="node3" class="node">
<title>UsersModule</title>
<polygon fill="#8dd3c7" stroke="black" points="115.94,-84.8 112.94,-88.8 91.94,-88.8 88.94,-84.8 24.06,-84.8 24.06,-48.8 115.94,-48.8 115.94,-84.8"/>
<text text-anchor="middle" x="70" y="-62.6" font-family="Times,serif" font-size="14.00">UsersModule</text>
</g>
<!-- UsersModule&#45;&gt;AppModule -->
<g id="edge3" class="edge">
<title>UsersModule&#45;&gt;AppModule</title>
<path fill="none" stroke="black" d="M70,-84.91C70,-104.14 70,-131.8 70,-131.8 70,-131.8 134.12,-131.8 134.12,-131.8"/>
<polygon fill="black" stroke="black" points="134.12,-135.3 144.12,-131.8 134.12,-128.3 134.12,-135.3"/>
</g>
</g>
</svg>
