<?xml version="1.0" encoding="UTF-8" standalone="no"?>
<!DOCTYPE svg PUBLIC "-//W3C//DTD SVG 1.1//EN"
 "http://www.w3.org/Graphics/SVG/1.1/DTD/svg11.dtd">
<!-- Generated by graphviz version 5.0.0 (20220707.1540)
 -->
<!-- Title: dependencies Pages: 1 -->
<svg width="550pt" height="250pt"
 viewBox="0.00 0.00 550.00 249.80" xmlns="http://www.w3.org/2000/svg" xmlns:xlink="http://www.w3.org/1999/xlink">
<g id="graph0" class="graph" transform="scale(1 1) rotate(0) translate(4 245.8)">
<title>dependencies</title>
<polygon fill="white" stroke="transparent" points="-4,4 -4,-245.8 546,-245.8 546,4 -4,4"/>
<text text-anchor="middle" x="271" y="-8.2" font-family="sans-serif" font-size="14.00">dependencies</text>
<g id="clust1" class="cluster">
<title>cluster_AnswersModule</title>
<polygon fill="none" stroke="black" stroke-dasharray="1,5" points="8,-32.8 8,-168.8 188,-168.8 188,-32.8 8,-32.8"/>
</g>
<g id="clust6" class="cluster">
<title>cluster_AnswersModule_providers</title>
<polygon fill="none" stroke="black" points="16,-40.8 16,-92.8 180,-92.8 180,-40.8 16,-40.8"/>
</g>
<g id="clust7" class="cluster">
<title>cluster_AppModule</title>
<polygon fill="none" stroke="black" stroke-dasharray="1,5" points="215,-108.8 215,-233.8 461,-233.8 461,-108.8 215,-108.8"/>
</g>
<g id="clust9" class="cluster">
<title>cluster_AppModule_imports</title>
<polygon fill="none" stroke="black" points="223,-116.8 223,-168.8 453,-168.8 453,-116.8 223,-116.8"/>
</g>
<g id="clust13" class="cluster">
<title>cluster_SurveysModule</title>
<polygon fill="none" stroke="black" stroke-dasharray="1,5" points="196,-32.8 196,-100.8 370,-100.8 370,-32.8 196,-32.8"/>
</g>
<g id="clust18" class="cluster">
<title>cluster_SurveysModule_providers</title>
<polygon fill="none" stroke="black" points="204,-40.8 204,-92.8 362,-92.8 362,-40.8 204,-40.8"/>
</g>
<g id="clust19" class="cluster">
<title>cluster_UsersModule</title>
<polygon fill="none" stroke="black" stroke-dasharray="1,5" points="378,-32.8 378,-100.8 534,-100.8 534,-32.8 378,-32.8"/>
</g>
<g id="clust24" class="cluster">
<title>cluster_UsersModule_providers</title>
<polygon fill="none" stroke="black" points="386,-40.8 386,-92.8 526,-92.8 526,-40.8 386,-40.8"/>
</g>
<!-- AnswersService -->
<g id="node1" class="node">
<title>AnswersService</title>
<ellipse fill="#fdb462" stroke="black" cx="98" cy="-66.8" rx="73.58" ry="18"/>
<text text-anchor="middle" x="98" y="-62.6" font-family="Times,serif" font-size="14.00">AnswersService</text>
</g>
<!-- AnswersModule -->
<g id="node2" class="node">
<title>AnswersModule</title>
<polygon fill="#8dd3c7" stroke="black" points="166.05,-160.8 163.05,-164.8 142.05,-164.8 139.05,-160.8 57.95,-160.8 57.95,-124.8 166.05,-124.8 166.05,-160.8"/>
<text text-anchor="middle" x="112" y="-138.6" font-family="Times,serif" font-size="14.00">AnswersModule</text>
</g>
<!-- AnswersService&#45;&gt;AnswersModule -->
<g id="edge1" class="edge">
<title>AnswersService&#45;&gt;AnswersModule</title>
<path fill="none" stroke="black" d="M112,-84.81C112,-84.81 112,-114.65 112,-114.65"/>
<polygon fill="black" stroke="black" points="108.5,-114.65 112,-124.65 115.5,-114.65 108.5,-114.65"/>
</g>
<!-- AppModule -->
<g id="node5" class="node">
<title>AppModule</title>
<polygon fill="#8dd3c7" stroke="black" points="324.66,-225.8 321.66,-229.8 300.66,-229.8 297.66,-225.8 241.34,-225.8 241.34,-189.8 324.66,-189.8 324.66,-225.8"/>
<text text-anchor="middle" x="283" y="-203.6" font-family="Times,serif" font-size="14.00">AppModule</text>
</g>
<!-- AnswersModule&#45;&gt;AppModule -->
<g id="edge2" class="edge">
<title>AnswersModule&#45;&gt;AppModule</title>
<path fill="none" stroke="black" d="M112,-160.91C112,-180.14 112,-207.8 112,-207.8 112,-207.8 231.17,-207.8 231.17,-207.8"/>
<polygon fill="black" stroke="black" points="231.17,-211.3 241.17,-207.8 231.17,-204.3 231.17,-211.3"/>
</g>
<!-- SurveysModule -->
<g id="node3" class="node">
<title>SurveysModule</title>
<polygon fill="#8dd3c7" stroke="black" points="335.16,-160.8 332.16,-164.8 311.16,-164.8 308.16,-160.8 230.84,-160.8 230.84,-124.8 335.16,-124.8 335.16,-160.8"/>
<text text-anchor="middle" x="283" y="-138.6" font-family="Times,serif" font-size="14.00">SurveysModule</text>
</g>
<!-- SurveysModule&#45;&gt;AppModule -->
<g id="edge3" class="edge">
<title>SurveysModule&#45;&gt;AppModule</title>
<path fill="none" stroke="black" d="M283,-160.91C283,-160.91 283,-179.79 283,-179.79"/>
<polygon fill="black" stroke="black" points="279.5,-179.79 283,-189.79 286.5,-179.79 279.5,-179.79"/>
</g>
<!-- UsersModule -->
<g id="node4" class="node">
<title>UsersModule</title>
<polygon fill="#8dd3c7" stroke="black" points="444.94,-160.8 441.94,-164.8 420.94,-164.8 417.94,-160.8 353.06,-160.8 353.06,-124.8 444.94,-124.8 444.94,-160.8"/>
<text text-anchor="middle" x="399" y="-138.6" font-family="Times,serif" font-size="14.00">UsersModule</text>
</g>
<!-- UsersModule&#45;&gt;AppModule -->
<g id="edge4" class="edge">
<title>UsersModule&#45;&gt;AppModule</title>
<path fill="none" stroke="black" d="M399,-160.91C399,-180.14 399,-207.8 399,-207.8 399,-207.8 334.88,-207.8 334.88,-207.8"/>
<polygon fill="black" stroke="black" points="334.88,-204.3 324.88,-207.8 334.88,-211.3 334.88,-204.3"/>
</g>
<!-- SurveysService -->
<g id="node6" class="node">
<title>SurveysService</title>
<ellipse fill="#fdb462" stroke="black" cx="283" cy="-66.8" rx="71.22" ry="18"/>
<text text-anchor="middle" x="283" y="-62.6" font-family="Times,serif" font-size="14.00">SurveysService</text>
</g>
<!-- SurveysService&#45;&gt;SurveysModule -->
<g id="edge5" class="edge">
<title>SurveysService&#45;&gt;SurveysModule</title>
<path fill="none" stroke="black" d="M283,-84.81C283,-84.81 283,-114.65 283,-114.65"/>
<polygon fill="black" stroke="black" points="279.5,-114.65 283,-124.65 286.5,-114.65 279.5,-114.65"/>
</g>
<!-- UsersService -->
<g id="node7" class="node">
<title>UsersService</title>
<ellipse fill="#fdb462" stroke="black" cx="456" cy="-66.8" rx="61.97" ry="18"/>
<text text-anchor="middle" x="456" y="-62.6" font-family="Times,serif" font-size="14.00">UsersService</text>
</g>
<!-- UsersService&#45;&gt;UsersModule -->
<g id="edge6" class="edge">
<title>UsersService&#45;&gt;UsersModule</title>
<path fill="none" stroke="black" d="M419.37,-81.45C419.37,-81.45 419.37,-114.7 419.37,-114.7"/>
<polygon fill="black" stroke="black" points="415.87,-114.7 419.37,-124.7 422.87,-114.7 415.87,-114.7"/>
</g>
</g>
</svg>
