<?xml version="1.0" encoding="UTF-8" standalone="no"?>
<!DOCTYPE svg PUBLIC "-//W3C//DTD SVG 1.1//EN"
 "http://www.w3.org/Graphics/SVG/1.1/DTD/svg11.dtd">
<!-- Generated by graphviz version 5.0.0 (20220707.1540)
 -->
<!-- Title: dependencies Pages: 1 -->
<svg width="198pt" height="174pt"
 viewBox="0.00 0.00 198.00 173.80" xmlns="http://www.w3.org/2000/svg" xmlns:xlink="http://www.w3.org/1999/xlink">
<g id="graph0" class="graph" transform="scale(1 1) rotate(0) translate(4 169.8)">
<title>dependencies</title>
<polygon fill="white" stroke="transparent" points="-4,4 -4,-169.8 194,-169.8 194,4 -4,4"/>
<text text-anchor="middle" x="95" y="-8.2" font-family="sans-serif" font-size="14.00">dependencies</text>
<g id="clust1" class="cluster">
<title>cluster_SurveysModule</title>
<polygon fill="none" stroke="black" stroke-dasharray="1,5" points="8,-32.8 8,-157.8 182,-157.8 182,-32.8 8,-32.8"/>
</g>
<g id="clust6" class="cluster">
<title>cluster_SurveysModule_providers</title>
<polygon fill="none" stroke="black" points="16,-40.8 16,-92.8 174,-92.8 174,-40.8 16,-40.8"/>
</g>
<!-- SurveysService -->
<g id="node1" class="node">
<title>SurveysService</title>
<ellipse fill="#fdb462" stroke="black" cx="95" cy="-66.8" rx="71.22" ry="18"/>
<text text-anchor="middle" x="95" y="-62.6" font-family="Times,serif" font-size="14.00">SurveysService</text>
</g>
<!-- SurveysModule -->
<g id="node2" class="node">
<title>SurveysModule</title>
<polygon fill="#8dd3c7" stroke="black" points="147.16,-149.8 144.16,-153.8 123.16,-153.8 120.16,-149.8 42.84,-149.8 42.84,-113.8 147.16,-113.8 147.16,-149.8"/>
<text text-anchor="middle" x="95" y="-127.6" font-family="Times,serif" font-size="14.00">SurveysModule</text>
</g>
<!-- SurveysService&#45;&gt;SurveysModule -->
<g id="edge1" class="edge">
<title>SurveysService&#45;&gt;SurveysModule</title>
<path fill="none" stroke="black" d="M95,-84.91C95,-84.91 95,-103.79 95,-103.79"/>
<polygon fill="black" stroke="black" points="91.5,-103.79 95,-113.79 98.5,-103.79 91.5,-103.79"/>
</g>
</g>
</svg>
